<?xml version="1.0" encoding="utf-8"?>
<!-- Generator: Adobe Illustrator 12.0.0, SVG Export Plug-In . SVG Version: 6.00 Build 51448)  -->
<!DOCTYPE svg PUBLIC "-//W3C//DTD SVG 1.1//EN" "http://www.w3.org/Graphics/SVG/1.1/DTD/svg11.dtd" [
	<!ENTITY ns_svg "http://www.w3.org/2000/svg">
	<!ENTITY ns_xlink "http://www.w3.org/1999/xlink">
]>
<svg  version="1.1" id="Layer_1" xmlns="&ns_svg;" xmlns:xlink="&ns_xlink;" width="316" height="316"
	 viewBox="0 0 556.668 556.666" overflow="visible" enable-background="new 0 0 556.668 556.666" xml:space="preserve">
<g>
	<path fill="#FFFFFF" d="M278.059,542.919c147.925,0,267.523-118.502,267.523-264.646c0-146.145-119.598-264.526-267.523-264.526
		c-147.373,0-266.974,118.382-266.974,264.526C11.085,424.417,130.687,542.919,278.059,542.919L278.059,542.919z"/>
	<path fill="#0075B7" d="M430.258,81.395c6.406,5.551,12.832,11.278,18.156,18.19c-22.43-12.356-46.998-22.164-75.838-17.535
		c-7.994,0.831-15.488,2.312-22.963,4.331c0.543-12.849-2.672-25.591-12.809-34.286c-9.063-6.11-18.689-9.909-29.373-10.636
		c8.537,8.233,13.906,19.701,12.268,32.18c-0.514,5.545-5.855,10.723-11.199,12.204c-8.529,3.042-19.225,1.741-26.154-3.985
		c-7.474-5.371-13.364-13.313-11.213-22.922l1.083-2.671c1.589,2.671,2.657,5.905,5.844,7.744c2.15,1.128,4.804,0.384,6.958-0.268
		c1.602-0.845,2.121-2.58,2.121-4.166c-0.52-7.583-8.531-11.648-14.924-13.488c-14.435-3.604-33.127-3.233-47.026,1.205
		c18.705,13.024,40.053,30.395,44.875,53.046c2.151,4.545,2.657,9.439,3.191,14.246c-13.339-21.08-34.167-38.175-57.682-43.822
		c-21.88-3.875-47.501-6.93-69.412-1.384c30.989-21.45,66.757-32.176,104.661-37.443C318.115,25.007,380.049,42.187,430.258,81.395
		L430.258,81.395z"/>
	<path fill="#0075B7" d="M79.418,129.643l-6.945,8.497c-19.211,28.766-33.632,59.551-40.04,93.82
		c-5.876,49-4.288,102.227,17.092,143.469c-0.535-12.018-1.085-25.131,2.133-36.229c6.928-22.934,17.061-45.394,37.905-61.74
		c-5.342,0.741-11.735,1.554-17.091,0c-10.147-2.419-16.541-12.227-20.28-20.904c-3.203-10.43-4.822-24.776,0.534-34.851
		c1.069,7.508,4.26,14.703,10.147,19.792c6.396,5.342,16.024,6.556,23.485,3.697c10.162-5.089,16.006-16.275,14.955-27.728
		c-1.602-9.05-10.682-15.353-19.229-17.106c1.603,2.849,5.343,5.993,2.671,9.525c-1.068,1.271-2.671,1.572-4.805,1.007
		c-3.74-2.212-5.342-6.569-6.411-10.533C68.719,177.353,70.353,150.259,79.418,129.643L79.418,129.643z"/>
	<path fill="#0075B7" d="M284.471,188.24c-5.343,15.161-18.695,30.515-33.649,37.174l0.55,0.729
		c13.352,10.904,25.62,25.5,33.646,40.575C288.207,241.305,287.691,213.401,284.471,188.24L284.471,188.24z"/>
	<path fill="#0075B7" d="M519.428,225.414c-4.273,29.671-17.627,59.061-44.846,75.782c-23.498,13.674-59.813,15.812-83.318,1.006
		c7.48,19.615,25.643,39.967,46.457,43.826c7.473,1.656,16.568-0.92,22.971,3.144c5.326,5.342,8.537,11.837,8.537,19.435
		c0.531,20.204-15.477,38.717-33.102,45.901c-12.816,4.54-27.768,3.173-37.383-6.827c-5.863-6.853-7.48-17.091-5.342-26.259
		c1.605-7.388,10.152-12.934,17.092-14.149c8.012-1.158,16.021,0.832,20.295,8.156c3.199,4.065,3.199,9.882,1.086,14.513
		c-0.553,1.48-1.617,3.113-3.232,3.618c1.615-6.231,2.68-13.947-2.658-18.605c-5.342-3.679-13.889-3.616-19.215-0.83
		c-3.215,1.305-4.289,4.448-4.82,7.033c-3.205,8.128-1.07,17.653,4.82,23.289c7.463,6.382,19.746,5.166,27.219,0.864
		c8.018-5.02,10.686-13.058,10.686-21.842c0-11.182-5.338-22.104-15.473-27.174c-13.354-7.123-31.525-2.793-42.188,6.642
		c-12.289,14.155-11.752,34.211-4.273,50.561c10.662,16.556,28.287,24.511,48.582,22.849c42.191-4.721,73.689-46.852,84.369-84.297
		C527.973,313.955,532.779,264.492,519.428,225.414L519.428,225.414z"/>
	<path fill="#0075B7" d="M401.949,441.061c-0.533,20.621-17.072,37.98-34.717,46.669c-12.803,6.558-32.029,7.304-43.242-2.696
		c-4.805-4.329-6.943-10.056-6.395-16.528c1.041-3.799,3.742-7.949,7.463-9.136c3.205-0.831,7.473-0.475,9.609,2.104
		c1.605,1.396,2.137,3.176,2.137,5.104c0,2.939-1.602,5.992-4.273,7.123c-2.131,1.278-4.789,0.593-6.943-0.091
		c0.521,0.684,0.521,1.453,1.074,2.194c4.275,7.213,12.279,10.356,20.279,9.439c6.404-1.011,11.232-6.947,13.367-12.674
		c1.602-9.435-2.135-18.214-9.094-23.736c-7.48-5.845-18.146-5.636-27.225-3.317c-14.953,7.089-23.5,19.757-35.248,31.21
		c-7.461,6.025-14.422,13.38-23.5,15.726c3.219-4.896,6.411-10,7.479-15.992c0.534-6.201-1.068-12.108-5.329-16.348
		c-6.956-7.123-17.623-8.633-26.717-5.937c-8.515,2.703-17.075,9.051-18.144,18.514l3.74-2.046c2.151-1.216,5.889-1.126,7.996,0.446
		c2.151,1.956,2.67,5.37,1.617,8.038c-5.874,9.169-18.158,9.378-28.842,9.973c-33.112-0.595-63.552-7.746-90.242-24.121
		c23.499,20.35,49.134,35.867,76.373,45.93c36.837,14.448,82.216,16.376,122.796,9.644c54.482-7.032,104.674-30.446,142.588-74.03
		c-14.432,9.972-30.424,16.529-49.113,15.992C411.027,454.174,408.359,446.046,401.949,441.061L401.949,441.061z"/>
	<path fill="#E4482D" d="M448.936,108.665c35.795,23.29,67.824,61.18,64.617,107.138c-3.725,31.244-17.609,64.059-48.066,77.174
		c-22.951,10.53-56.043,9.699-77.959-3.223c-26.166-19.875-33.629-54.545-25.617-85.229c4.805-16.553,19.225-32.917,37.383-34.964
		c14.939-2.657,28.84,2.047,37.371,14.167c11.197,15.235,12.814,38.722,2.672,55.071c-6.941,11.571-19.762,17.489-33.635,15.636
		c-8.559-0.465-16.551-5.36-20.293-13.426c-5.879-12.939-2.668-29.745,5.855-40.192c4.293-4.714,9.615-7.491,16.027-5.812
		c4.805,1.181,10.146,3.5,12.283,8.497c3.188,6.472,1.068,14.776-1.068,21.17c4.805-0.649,8.541-6.394,9.627-11.006
		c1.588-9.242-1.086-18.943-8.027-25.235c-5.873-5.353-15.49-6.292-22.963-3.889c-16.539,6.84-22.418,24.686-21.881,41.601
		c0,13.764,6.404,27.936,19.746,33.929c17.088,6.183,36.314,0.621,47.527-12.104c18.695-21.526,18.156-58.332,4.805-82.543
		c-10.141-22.477-33.645-45.206-59.813-45.574c-10.668-0.181-20.295,3.41-26.697,11.362c-6.4,7.755-8,17.389-8,27.728l-2.152,68.49
		v31.543l2.152,75.512c1.6,39.105,9.08,75.958,21.361,110.638c-18.172-12.192-46.996-11.182-66.76-1.747l-11.746,7.39
		c5.873-26.35,8.547-53.737,9.609-82.16l0.539-43.764l-1.602-61.995l-2.674-44.935c-3.205-42.149-9.615-82.9-21.895-121.368
		c19.244,2.238,40.035,2.877,59.814,1.939l42.188-3.59C405.701,94.984,429.721,95.251,448.936,108.665L448.936,108.665z"/>
	<path fill="#E4482D" d="M264.173,116.319c11.216,15.636,16.555,33.94,14.954,54.742c-3.738,23.364-22.949,45.574-45.915,52.771
		c49.133,36.788,73.157,96.59,56.063,156.969c-15.472,53.142-72.083,85.775-124.943,89.632
		c-27.771,0.593-52.885-8.129-73.165-25.309c-27.774-25.041-37.372-60.112-33.112-97.349c4.818-33.938,32.576-64.696,65.155-75.319
		c31.51-8.972,64.086,0.831,85.97,24.584c20.83,22.369,20.83,60.825,11.214,88.479c-6.94,19.402-26.183,34.563-46.464,36.852
		c-22.43,2.046-42.176-5.726-57.13-21.334c-14.952-19.497-18.158-49.553-7.476-72.012c6.41-14.986,21.896-27.947,38.988-28.304
		c14.953,0.769,29.907,5.46,38.436,18.96c9.614,13.588,11.75,33.556,5.356,49.191c-3.219,8.784-11.214,18.395-20.828,19.88
		c-13.901,2.375-26.704-2.61-33.646-13.616c-7.478-10.713-8.012-28.073-0.534-39.078c5.325-6.824,12.284-11.754,21.362-10.091
		c5.874,0.746,11.201,3.413,14.956,8.043c1.599-3.681-1.086-7.032-3.22-9.882c-5.861-6.291-14.954-7.415-23.471-6.291
		c-10.161,1.663-19.239,12.492-22.445,21.989c-5.876,16.378-3.204,36.999,9.078,49.549c10.133,10.712,25.102,14.329,40.058,11.661
		c12.284-2.521,25.084-12.108,28.838-24.601c8.529-19.227,7.461-46.79-6.408-63.313c-14.954-17.45-37.386-25.891-60.884-19.882
		c-21.362,5.756-41.125,24.596-44.862,46.585c-8.013,31.805,1.604,64.443,26.153,84.2c21.913,16.857,57.163,16.739,81.179,5.46
		c35.248-17.269,47.532-55.629,44.86-93.785c-4.805-35.875-14.951-71.21-44.86-95.048c-10.682-7.672-25.102-11.26-38.972-8.117
		c-3.738,10.621-1.083,22.639,3.74,32.058c-14.435-5.089-32.58-3.901-47.015-0.278c-5.859,1.499-11.2,4.331-16.542,7.118
		c12.805-32.442,11.216-73.952,9.097-110.73c-2.154-11.272-1.633-23.855-5.373-34.284c-2.106-3.799-5.845-5.918-9.583-5.654
		c-2.685-0.264-4.821,0.938-6.958,1.855c22.95-37.072,65.157-52.131,108.386-44.936C220.928,82.051,246.03,94.153,264.173,116.319
		L264.173,116.319z M212.918,166.257c1.07-11.295-0.534-22.748-5.342-32.641c-2.668-6.1-8.544-10.447-14.951-12.301
		c-6.927-2.21-13.352,0.758-17.613,5.37c-13.365,16.738-19.773,37.982-16.554,60.368c1.585,7.846,7.476,16.642,15.472,18.485
		c12.284,0,18.695-0.922,27.773-10.266C207.576,187.144,211.316,176.787,212.918,166.257L212.918,166.257z"/>
</g>
</svg>
